<?xml version="1.0" encoding="UTF-8"?>
<svg xmlns="http://www.w3.org/2000/svg" version="1.1" viewBox="0 0 283.46 283.46">
  <!-- Generator: Adobe Illustrator 29.3.1, SVG Export Plug-In . SVG Version: 2.1.0 Build 151)  -->
  <defs>
    <style>
      .st0 {
        fill: #161f2b;
      }

      .st1 {
        fill: #62c8d2;
      }

      .st2 {
        fill: #eaf4e7;
      }

      .st3 {
        fill: #606161;
        stroke: #72c8b1;
        stroke-miterlimit: 10;
        stroke-width: 7px;
      }

      .st4 {
        fill: #eef1b5;
      }
    </style>
  </defs>
  <g id="Background">
    <rect class="st0" x="0" width="283.46" height="283.46" rx="28.45" ry="28.45"/>
  </g>
  <g id="TEXT">
    <g>
      <path class="st1" d="M24,143.24h25.52c15.48,0,27.49,5.17,27.49,22.5,0,8.14-3.74,16.8-9.82,19.58v.56c7.62,2.41,13.5,9.24,13.5,21.35,0,18.46-12.82,26.72-29.04,26.72h-27.64v-90.72ZM48.74,179.58c8.18,0,11.8-4.21,11.8-10.8,0-6.99-3.82-9.71-11.67-9.71h-8v20.51h7.88ZM50.27,218.14c9.19,0,13.94-3.98,13.94-12.23s-4.67-11.2-13.94-11.2h-9.42v23.42h9.42Z"/>
      <path class="st1" d="M107.07,143.24h20.17l23.41,90.72h-17.84l-9.75-45.94c-2.07-9.07-4.06-19.8-6.05-29.26h-.46c-1.8,9.58-3.79,20.19-5.87,29.26l-9.79,45.94h-17.23l23.41-90.72ZM99.09,196.41h35.87v15.94h-35.87v-15.94Z"/>
      <path class="st1" d="M153.92,222.52l9.68-14.07c5.3,5.62,12.18,9.48,18.31,9.48,7.04,0,10.48-3.37,10.48-8.75,0-5.71-4.24-7.54-10.75-10.8l-9.69-5.03c-7.72-3.82-15.04-11.55-15.04-24.73,0-15.03,11.04-27.04,26.55-27.04,8.58,0,17.56,4.12,23.98,11.89l-8.51,12.92c-4.91-4.58-9.58-7.11-15.47-7.11s-9.51,2.95-9.51,8.13c0,5.56,4.88,7.59,11.38,10.74l9.5,4.68c9.1,4.48,14.79,11.86,14.79,24.68,0,15.07-10.32,28.12-28.09,28.12-9.7,0-20.01-4.47-27.61-13.12Z"/>
      <path class="st1" d="M222.33,143.24h46.71v17.2h-29.86v18.22h25.42v17.2h-25.42v20.9h31v17.2h-47.85v-90.72Z"/>
    </g>
    <g>
      <path class="st4" d="M64.17,113.21c-.89.55-2.07,1.11-3.52,1.68-1.46.57-2.92.85-4.38.85-2.08,0-3.77-.82-5.06-2.47-1.29-1.64-2.07-4.19-2.33-7.64l-.2-.05c-.42,1.46-.9,2.82-1.45,4.08-.55,1.25-1.24,2.34-2.07,3.25-.89.98-1.84,1.71-2.85,2.2s-2.31.73-3.9.73c-1.68,0-3.28-.62-4.79-1.86s-2.83-2.99-3.97-5.27c-1.11-2.21-2-4.93-2.66-8.15s-.99-6.72-.99-10.5.35-7.13,1.05-10.16,1.67-5.73,2.92-8.11c1.23-2.28,2.67-4.06,4.33-5.35,1.66-1.29,3.43-1.93,5.3-1.93,2.63,0,4.66.73,6.11,2.2,1.45,1.46,2.54,3.78,3.27,6.93l.23-.05.65-7.76h9.79c-.13,2.31-.45,5.79-.96,10.45-.51,4.66-1.07,9.67-1.69,15.04,0,3.03.26,6.43.79,10.21.53,3.78,1.36,6.27,2.49,7.47.3.29.86.47,1.68.54.82.07,1.55.1,2.19.1v3.56ZM48.17,88.65c-.09-2.31-.25-4.6-.48-6.86-.23-2.26-.58-4.37-1.08-6.32-.47-1.89-1.08-3.43-1.81-4.61-.74-1.19-1.64-1.78-2.72-1.78-1.75,0-3.14,1.76-4.15,5.27s-1.51,8.95-1.51,16.31c0,3.06.09,5.71.28,7.93.19,2.23.51,4.26.96,6.08.45,1.73,1.05,3.07,1.8,4.03.75.96,1.67,1.44,2.76,1.44,1.79,0,3.2-2.01,4.23-6.03,1.03-4.02,1.6-9.17,1.71-15.45Z"/>
      <path class="st2" d="M69.39,104.52v-61.48h4.78v62.08c0,2.52.64,3.52,1.33,3.52.27,0,.51,0,1.05-.2l.65,6.28c-.68.42-1.5.77-2.75.77-3.58,0-5.06-3.93-5.06-10.96Z"/>
      <path class="st2" d="M85.37,65.67h3.95l.4,5.61h.16c2.55-3.65,5.73-6.81,9-6.81,7.3,0,11.2,9.75,11.2,24.77,0,16.57-5.78,26.24-12.23,26.24-2.59,0-5.24-2.05-7.83-5.63l.13,8.49v16.46h-4.78v-69.12ZM105.14,89.32c0-10.73-2.13-17.92-7.45-17.92-2.39,0-4.8,2.26-7.55,6.63v25.48c2.56,3.7,5.01,5.06,6.88,5.06,4.67,0,8.12-7.25,8.12-19.25Z"/>
      <path class="st2" d="M118.54,43.04h4.78v19.49l-.17,9.99c2.64-4.39,5.5-8.04,9.38-8.04,5.95,0,8.62,6.61,8.62,19.01v30.8h-4.78v-29.74c0-9.06-1.59-12.93-5.33-12.93-2.89,0-4.89,2.54-7.72,7.47v35.2h-4.78V43.04Z"/>
      <path class="st2" d="M149.56,101.67c0-10.59,5.31-15.89,17.35-18.14-.01-6.25-1.22-12.28-5.83-12.28-3.27,0-6.21,2.66-8.42,5.21l-1.87-5.64c2.6-2.94,6.56-6.35,11.09-6.35,6.89,0,9.81,7.89,9.81,19.99v29.82h-3.95l-.4-5.81h-.16c-2.69,3.85-5.84,7.01-9.34,7.01-4.73,0-8.27-5.05-8.27-13.82ZM166.91,102.42v-13.5c-9.46,1.96-12.67,5.95-12.67,12.16,0,5.52,2.18,7.77,4.95,7.77s4.98-2.28,7.72-6.43Z"/>
    </g>
    <path class="st4" d="M272.35,121"/>
    <line class="st3" x1="21" y1="133.33" x2="269.35" y2="133.33"/>
  </g>
</svg>