<?xml version="1.0" encoding="UTF-8"?>
<svg id="Layer_1" xmlns="http://www.w3.org/2000/svg" version="1.1" viewBox="0 0 283.5 283.5">
  <!-- Generator: Adobe Illustrator 29.3.1, SVG Export Plug-In . SVG Version: 2.1.0 Build 151)  -->
  <defs>
    <style>
      .st0 {
        fill: #161f2b;
      }

      .st1 {
        fill: #eaf4e7;
      }

      .st2 {
        font-family: Arial-BoldMT, Arial;
        font-size: 109.2px;
        font-weight: 700;
      }

      .st2, .st3 {
        fill: #eef1b5;
      }

      .st4 {
        stroke: #62c8d2;
        stroke-linecap: round;
      }

      .st4, .st5 {
        fill: none;
        stroke-miterlimit: 10;
        stroke-width: 2.2px;
      }

      .st5 {
        stroke: #32666b;
      }
    </style>
  </defs>
  <g id="Background">
    <rect class="st0" y="0" width="283.5" height="283.5" rx="28.5" ry="28.5"/>
  </g>
  <path class="st3" d="M52.1,131.1c-1,.7-2.3,1.2-3.8,1.9-1.6.7-3.2.9-4.8.9s-4.2-.9-5.6-2.7c-1.4-1.7-2.3-4.6-2.5-8.3h-.2c-.4,1.5-1,3.1-1.6,4.4-.5,1.3-1.3,2.5-2.3,3.5-1,1.1-2,1.9-3.1,2.4s-2.5.8-4.3.8-3.6-.7-5.2-2.1-3.1-3.3-4.4-5.8c-1.2-2.4-2.2-5.4-2.9-9s-1.1-7.3-1.1-11.5.4-7.8,1.1-11.1,1.9-6.2,3.2-8.8c1.3-2.5,2.9-4.5,4.7-5.8s3.7-2.1,5.8-2.1,5.1.8,6.7,2.4c1.6,1.6,2.7,4.2,3.6,7.5h.2l.8-8.5h10.7c-.1,2.5-.5,6.3-1.1,11.4-.5,5.1-1.2,10.6-1.9,16.4,0,3.3.3,7,.9,11.1.5,4.2,1.5,6.9,2.7,8.2.3.3,1,.5,1.9.5h2.4v3.9h0l.2.4ZM34.6,104.2c0-2.5-.2-5-.5-7.5s-.7-4.8-1.2-6.9-1.2-3.7-2-5-1.7-2-2.9-2c-2,0-3.4,2-4.6,5.8s-1.6,9.7-1.6,17.8,0,6.2.3,8.6c.2,2.4.5,4.7,1.1,6.7.5,1.9,1.1,3.4,2,4.4s1.9,1.5,3.1,1.5c2,0,3.5-2.2,4.6-6.6s1.7-10.1,1.9-16.8h0Z"/>
  <path class="st1" d="M57.7,121.6V54.4h5.2v67.8c0,2.7.7,3.8,1.4,3.8s.5,0,1.2-.2l.8,6.9c-.8.4-1.6.9-3.1.9-3.9,0-5.6-4.3-5.6-12h0Z"/>
  <path class="st1" d="M75.2,79.2h4.3l.4,6.1h.2c2.8-4,6.2-7.4,9.8-7.4,8,0,12.2,10.7,12.2,27.1s-6.3,28.6-13.3,28.6-5.7-2.3-8.5-6.1v9.3c.1,0,.1,18,.1,18h-5.2v-75.5h0ZM96.7,105c0-11.7-2.3-19.6-8.1-19.6s-5.2,2.5-8.3,7.2v27.9c2.8,4,5.5,5.6,7.5,5.6,5.1,0,8.8-7.9,8.8-21h0Z"/>
  <path class="st1" d="M111.4,54.4h5.2v21.3l-.2,10.9c2.8-4.8,6-8.7,10.3-8.7,6.4,0,9.4,7.2,9.4,20.8v33.6h-5.2v-32.4c0-9.9-1.7-14.1-5.8-14.1s-5.4,2.7-8.4,8.2v38.5h-5.2V54.4Z"/>
  <path class="st1" d="M145.4,118.5c0-11.6,5.8-17.4,19-19.8,0-6.8-1.3-13.4-6.3-13.4s-6.8,2.9-9.2,5.7l-2.1-6.1c2.8-3.2,7.2-6.9,12.1-6.9,7.5,0,10.7,8.6,10.7,21.8v32.6h-4.3l-.4-6.3h-.2c-2.9,4.2-6.3,7.6-10.2,7.6s-9.1-5.6-9.1-15.1h-.1ZM164.3,119.3v-14.7c-10.4,2.2-13.9,6.4-13.9,13.3s2.4,8.5,5.4,8.5,5.5-2.5,8.4-7h.1Z"/>
  <path class="st3" d="M279.5,139.6"/>
  <text class="st2" transform="translate(88.6 209.6)"><tspan x="0" y="0">raw</tspan></text>
  <g>
    <path class="st5" d="M183.7,55.9v76.4c0,.4.4.8.8.8h92.2"/>
    <line class="st4" x1="200.1" y1="53.7" x2="200.1" y2="131.1"/>
    <line class="st4" x1="266.4" y1="53.7" x2="266.4" y2="131.1"/>
    <line class="st4" x1="263.8" y1="111.6" x2="263.8" y2="131.1"/>
    <line class="st4" x1="247.1" y1="111.6" x2="247.1" y2="131.1"/>
    <line class="st4" x1="203.2" y1="111.6" x2="203.2" y2="131.1"/>
    <line class="st4" x1="269.3" y1="92.1" x2="269.3" y2="131.1"/>
    <line class="st4" x1="250.6" y1="92.1" x2="250.6" y2="131.1"/>
    <line class="st4" x1="253.9" y1="101.9" x2="253.9" y2="131.1"/>
    <line class="st4" x1="196.9" y1="101.9" x2="196.9" y2="131.1"/>
    <line class="st4" x1="224.2" y1="111.6" x2="224.2" y2="131.1"/>
    <line class="st4" x1="227.4" y1="63.1" x2="227.4" y2="131.1"/>
    <line class="st4" x1="230.5" y1="101.9" x2="230.5" y2="131.1"/>
    <line class="st4" x1="233.6" y1="121.4" x2="233.6" y2="131.1"/>
    <line class="st4" x1="221.1" y1="121.4" x2="221.1" y2="131.1"/>
  </g>
</svg>