<?xml version="1.0" encoding="UTF-8"?>
<svg id="Layer_1" data-name="Layer 1" xmlns="http://www.w3.org/2000/svg" viewBox="0 0 170.29 158.96">
  <defs>
    <style>
      .cls-1 {
        fill: #62c8d2;
        letter-spacing: .05em;
      }

      .cls-1, .cls-2, .cls-3, .cls-4, .cls-5, .cls-6, .cls-7 {
        isolation: isolate;
      }

      .cls-1, .cls-2, .cls-3, .cls-5, .cls-6, .cls-7 {
        font-size: 83.95px;
      }

      .cls-1, .cls-5, .cls-6, .cls-7 {
        font-family: ArialMT, Arial;
      }

      .cls-2 {
        fill: #eef1b5;
      }

      .cls-2, .cls-3 {
        font-family: Arial-BoldMT, Arial;
        font-weight: 700;
      }

      .cls-2, .cls-3, .cls-5 {
        letter-spacing: .02em;
      }

      .cls-3 {
        fill: none;
        stroke: #e8ebb1;
        stroke-width: .42px;
      }

      .cls-3, .cls-8 {
        stroke-miterlimit: 10;
      }

      .cls-8 {
        fill: #ddd;
        stroke: #ccc;
        stroke-width: 1px;
      }

      .cls-5, .cls-6, .cls-7 {
        fill: #161f2b;
      }

      .cls-6 {
        letter-spacing: .02em;
      }

      .cls-7 {
        letter-spacing: 0em;
      }
    </style>
  </defs>
  <text class="cls-1" transform="translate(67.6 131.7) scale(.58 1)"><tspan x="0" y="0">ρept</tspan></text>
  <circle class="cls-8" cx="141.03" cy="68.52" r="4.24"/>
  <circle class="cls-8" cx="147.52" cy="44.34" r="4.24"/>
  <circle class="cls-8" cx="150.16" cy="31.1" r="4.24"/>
  <circle class="cls-8" cx="151.76" cy="37.87" r="4.24"/>
  <circle class="cls-8" cx="148.53" cy="50.9" r="4.24"/>
  <circle class="cls-8" cx="143.28" cy="55.14" r="4.24"/>
  <circle class="cls-8" cx="143.28" cy="61.69" r="4.24"/>
  <g class="cls-4">
    <text class="cls-2" transform="translate(.21 72.23) scale(.58 1)"><tspan x="0" y="0">α</tspan></text>
    <text class="cls-3" transform="translate(.21 72.23) scale(.58 1)"><tspan x="0" y="0">α</tspan></text>
    <text class="cls-5" transform="translate(29.33 72.23) scale(.58 1)"><tspan x="0" y="0">l</tspan></text>
    <text class="cls-7" transform="translate(42.47 72.23) scale(.58 1)"><tspan x="0" y="0">p</tspan></text>
    <text class="cls-6" transform="translate(70.03 72.23) scale(.58 1)"><tspan x="0" y="0">ha</tspan></text>
  </g>
  <circle class="cls-8" cx="154.42" cy="24.84" r="4.24"/>
  <circle class="cls-8" cx="154.42" cy="17.87" r="4.24"/>
  <circle class="cls-8" cx="158.66" cy="11.81" r="4.24"/>
</svg>