<?xml version="1.0" encoding="UTF-8"?>
<svg id="Layer_1" xmlns="http://www.w3.org/2000/svg" version="1.1" viewBox="0 0 176.5 173.8">
  <!-- Generator: Adobe Illustrator 29.3.1, SVG Export Plug-In . SVG Version: 2.1.0 Build 151)  -->
  <defs>
    <style>
      .st0 {
        fill: #62c8d2;
        letter-spacing: 0em;
      }

      .st0, .st1, .st2, .st3, .st4, .st5, .st6 {
        isolation: isolate;
      }

      .st0, .st1, .st2, .st4, .st5, .st6 {
        font-size: 84px;
      }

      .st0, .st4, .st5, .st6 {
        font-family: ArialMT, Arial;
      }

      .st1 {
        fill: #eef1b5;
      }

      .st1, .st2 {
        font-family: Arial-BoldMT, Arial;
        font-weight: 700;
      }

      .st1, .st2, .st4 {
        letter-spacing: 0em;
      }

      .st2 {
        fill: none;
        stroke: #e8ebb1;
        stroke-width: .4px;
      }

      .st2, .st7 {
        stroke-miterlimit: 10;
      }

      .st7 {
        fill: #ddd;
        stroke: #ccc;
        stroke-width: 1px;
      }

      .st4, .st5, .st6 {
        fill: #161f2b;
      }

      .st5 {
        letter-spacing: 0em;
      }

      .st6 {
        letter-spacing: 0em;
      }
    </style>
  </defs>
  <text class="st0" transform="translate(69.5 139.9) scale(.6 1)"><tspan x="0" y="0">ρept</tspan></text>
  <text/>
  <text/>
  <circle class="st7" cx="142.9" cy="76.7" r="4.2"/>
  <circle class="st7" cx="149.4" cy="52.5" r="4.2"/>
  <circle class="st7" cx="152.1" cy="39.3" r="4.2"/>
  <circle class="st7" cx="153.7" cy="46.1" r="4.2"/>
  <circle class="st7" cx="150.4" cy="59.1" r="4.2"/>
  <circle class="st7" cx="145.2" cy="63.3" r="4.2"/>
  <circle class="st7" cx="145.2" cy="69.9" r="4.2"/>
  <g class="st3">
    <text class="st1" transform="translate(2.1 80.4) scale(.6 1)"><tspan x="0" y="0">α</tspan></text>
    <text class="st2" transform="translate(2.1 80.4) scale(.6 1)"><tspan x="0" y="0">α</tspan></text>
    <text class="st4" transform="translate(31.2 80.4) scale(.6 1)"><tspan x="0" y="0">l</tspan></text>
    <text class="st6" transform="translate(44.4 80.4) scale(.6 1)"><tspan x="0" y="0">p</tspan></text>
    <text class="st5" transform="translate(71.9 80.4) scale(.6 1)"><tspan x="0" y="0">ha</tspan></text>
  </g>
  <circle class="st7" cx="156.3" cy="33" r="4.2"/>
  <circle class="st7" cx="156.3" cy="26.1" r="4.2"/>
  <circle class="st7" cx="160.5" cy="20" r="4.2"/>
</svg>