<?xml version="1.0" encoding="UTF-8"?>
<svg id="Layer_1" data-name="Layer 1" xmlns="http://www.w3.org/2000/svg" viewBox="0 0 283.5 283.5">
  <defs>
    <style>
      .cls-1, .cls-2 {
        fill: none;
      }

      .cls-2 {
        stroke: #231f20;
        stroke-linecap: round;
        stroke-miterlimit: 10;
        stroke-width: 20px;
      }

      .cls-3, .cls-4 {
        isolation: isolate;
      }

      .cls-4 {
        fill: #231f20;
        font-family: Niramit-SemiBold, Niramit;
        font-size: 71.8px;
        font-weight: 600;
      }

      .cls-5 {
        letter-spacing: -.02em;
      }
    </style>
  </defs>
  <rect class="cls-1" width="283.5" height="283.5"/>
  <g>
    <line class="cls-2" x1="68.4" y1="107" x2="207.7" y2="107"/>
    <line class="cls-2" x1="68.4" y1="134.4" x2="207.7" y2="134.4"/>
    <line class="cls-2" x1="68.4" y1="161.8" x2="207.7" y2="161.8"/>
    <g>
      <path class="cls-2" d="M239.8,84.9v176.7c0,3.9-3.5,7.1-7.9,7.1H49.2c-4.3,0-7.9-3.2-7.9-7.1V21.2c0-3.9,3.5-7.1,7.9-7.1h111.8c4.3,0,7.9,3.2,7.9,7.1v49.5c0,3.9,3.5,7.1,7.9,7.1h55.1c4.3,0,7.9,3.2,7.9,7.1h0Z"/>
      <line class="cls-2" x1="167.1" y1="16.7" x2="237" y2="79.4"/>
    </g>
  </g>
  <g class="cls-3">
    <g class="cls-3">
      <text class="cls-4" transform="translate(61.7 233.3)"><tspan x="0" y="0">d</tspan><tspan class="cls-5" x="41.86" y="0">oc</tspan><tspan x="116.46" y="0">s</tspan></text>
    </g>
  </g>
</svg>