<?xml version="1.0" encoding="UTF-8"?>
<svg id="Layer_1" xmlns="http://www.w3.org/2000/svg" version="1.1" viewBox="0 0 283.5 283.5">
  <!-- Generator: Adobe Illustrator 29.3.1, SVG Export Plug-In . SVG Version: 2.1.0 Build 151)  -->
  <defs>
    <style>
      .st0 {
        fill: #161f2b;
      }

      .st1, .st2, .st3, .st4 {
        isolation: isolate;
      }

      .st1, .st2, .st5 {
        fill: #62c8d2;
      }

      .st1, .st4 {
        font-family: Arial-BoldMT, Arial;
        font-size: 14.2px;
        font-weight: 700;
      }

      .st6, .st7 {
        fill: #eaf4e7;
      }

      .st2 {
        opacity: .8;
      }

      .st4 {
        fill: none;
      }

      .st4, .st5 {
        stroke: #eaf4e7;
        stroke-miterlimit: 10;
      }

      .st7 {
        fill-rule: evenodd;
      }

      .st5 {
        stroke-width: 1.2px;
      }

      .st8 {
        fill: #eef1b5;
      }
    </style>
  </defs>
  <rect class="st0" y="0" width="283.5" height="283.5" rx="52.6" ry="52.6"/>
  <path class="st8" d="M290.4,134.7"/>
  <g>
    <g>
      <g>
        <rect class="st2" x="229.7" y="106.7" width="7.7" height="8.4" rx=".5" ry=".5"/>
        <rect class="st2" x="229.7" y="117.1" width="7.7" height="8.4" rx=".5" ry=".5"/>
        <rect class="st2" x="229.7" y="127.5" width="7.7" height="8.4" rx=".5" ry=".5"/>
        <rect class="st2" x="239.3" y="106.7" width="7.7" height="8.4" rx=".5" ry=".5"/>
        <rect class="st2" x="239.3" y="117.1" width="7.7" height="8.4" rx=".5" ry=".5"/>
        <rect class="st2" x="239.3" y="127.5" width="7.7" height="8.4" rx=".5" ry=".5"/>
        <rect class="st2" x="229.7" y="96.3" width="7.7" height="8.4" rx=".5" ry=".5"/>
        <rect class="st2" x="239.3" y="96.3" width="7.7" height="8.4" rx=".5" ry=".5"/>
        <rect class="st2" x="249" y="96.3" width="7.7" height="8.4" rx=".5" ry=".5"/>
        <rect class="st2" x="249" y="106.7" width="7.7" height="8.4" rx=".5" ry=".5"/>
        <rect class="st2" x="249" y="117.1" width="7.7" height="8.4" rx=".5" ry=".5"/>
        <rect class="st2" x="249" y="127.5" width="7.7" height="8.4" rx=".5" ry=".5"/>
      </g>
      <rect class="st5" x="229.4" y="80.3" width="27" height="13.6" rx="1.9" ry="1.9"/>
      <rect class="st5" x="229.4" y="64.6" width="27" height="13.6" rx="1.9" ry="1.9"/>
      <rect class="st5" x="214.3" y="95.9" width="12.4" height="39.5" rx="1.9" ry="1.9"/>
      <rect class="st5" x="199.7" y="95.9" width="12.4" height="39.5" rx="1.9" ry="1.9"/>
      <g class="st3">
        <text class="st1" transform="translate(204.8 82.7) scale(.9 1)"><tspan x="0" y="0">{</tspan></text>
        <text class="st4" transform="translate(204.8 82.7) scale(.9 1)"><tspan x="0" y="0">{</tspan></text>
      </g>
      <g class="st3">
        <text class="st1" transform="translate(219.5 82.7) scale(.9 1)"><tspan x="0" y="0">}</tspan></text>
        <text class="st4" transform="translate(219.5 82.7) scale(.9 1)"><tspan x="0" y="0">}</tspan></text>
      </g>
    </g>
    <path class="st8" d="M66.2,137.7c-1,.7-2.3,1.2-3.8,1.9-1.6.7-3.2.9-4.8.9s-4.2-.9-5.6-2.7c-1.4-1.7-2.3-4.6-2.5-8.3h-.2c-.4,1.5-1,3.1-1.6,4.4-.5,1.3-1.3,2.5-2.3,3.5-1,1.1-2,1.9-3.1,2.4s-2.5.8-4.3.8-3.6-.7-5.2-2.1-3.1-3.3-4.4-5.8c-1.2-2.4-2.2-5.4-2.9-9s-1.1-7.3-1.1-11.5.4-7.8,1.1-11.1,1.9-6.2,3.2-8.8c1.3-2.5,2.9-4.5,4.7-5.8s3.7-2.1,5.8-2.1,5.1.8,6.7,2.4c1.6,1.6,2.7,4.2,3.6,7.5h.2l.8-8.5h10.7c0,2.5-.5,6.3-1.1,11.4-.5,5.1-1.2,10.6-1.9,16.4,0,3.3.3,7,.9,11.1.5,4.2,1.5,6.9,2.7,8.2.3.3,1,.5,1.9.5h2.4v3.9h0l.2.4h-.1ZM48.8,110.8c0-2.5-.2-5-.5-7.5s-.7-4.8-1.2-6.9-1.2-3.7-2-5-1.7-2-2.9-2c-2,0-3.4,2-4.6,5.8s-1.6,9.7-1.6,17.8,0,6.2.3,8.6c.2,2.4.5,4.7,1.1,6.7.5,1.9,1.1,3.4,2,4.4s1.9,1.5,3.1,1.5c2,0,3.5-2.2,4.6-6.6s1.7-10.1,1.9-16.8h-.2Z"/>
    <path class="st6" d="M71.9,128.2V61h5.2v67.8c0,2.7.7,3.8,1.4,3.8s.5,0,1.2-.2l.8,6.9c-.8.4-1.6.9-3.1.9-3.9,0-5.6-4.3-5.6-12h0Z"/>
    <path class="st6" d="M89.4,85.8h4.3l.4,6.1h.2c2.8-4,6.2-7.4,9.8-7.4,8,0,12.2,10.7,12.2,27.1s-6.3,28.6-13.3,28.6-5.7-2.3-8.5-6.1v9.3c0,0,0,18,0,18h-5.2v-75.5h0ZM110.9,111.6c0-11.7-2.3-19.6-8.1-19.6s-5.2,2.5-8.3,7.2v27.9c2.8,4,5.5,5.6,7.5,5.6,5.1,0,8.8-7.9,8.8-21h0Z"/>
    <path class="st6" d="M125.6,61h5.2v21.3l-.2,10.9c2.8-4.8,6-8.7,10.3-8.7,6.4,0,9.4,7.2,9.4,20.8v33.6h-5.2v-32.4c0-9.9-1.7-14.1-5.8-14.1s-5.4,2.7-8.4,8.2v38.5h-5.2V61h0Z"/>
    <path class="st6" d="M159.5,125.1c0-11.6,5.8-17.4,19-19.8,0-6.8-1.3-13.4-6.3-13.4s-6.8,2.9-9.2,5.7l-2.1-6.1c2.8-3.2,7.2-6.9,12.1-6.9,7.5,0,10.7,8.6,10.7,21.8v32.6h-4.3l-.4-6.3h-.2c-2.9,4.2-6.3,7.6-10.2,7.6s-9.1-5.6-9.1-15.1h-.1.1ZM178.4,125.9v-14.7c-10.4,2.2-13.9,6.4-13.9,13.3s2.4,8.5,5.4,8.5,5.5-2.5,8.4-7h.1Z"/>
    <path class="st6" d="M57.7,213.9l1.3,7.8c-2.5.5-4.7.8-6.7.8-3.2,0-5.7-.5-7.5-1.5-1.8-1-3-2.4-3.7-4-.7-1.7-1.1-5.1-1.1-10.5v-30.1h-6.5v-6.9h6.5v-13l8.8-5.3v18.3h8.9v6.9h-8.9v30.6c0,2.5.2,4.2.5,4.9.3.7.8,1.3,1.5,1.7.7.4,1.7.6,3,.6s2.3-.1,3.9-.3Z"/>
    <path class="st6" d="M199.7,222.5v-72.2h8.9v72.2h-8.9Z"/>
    <path class="st6" d="M215.7,205.7l8.8-1.4c.5,3.5,1.9,6.2,4.1,8.1,2.2,1.9,5.4,2.8,9.4,2.8s7.1-.8,9.1-2.5c2-1.7,3-3.6,3-5.8s-.9-3.6-2.6-4.7c-1.2-.8-4.2-1.8-9.1-3-6.5-1.6-11-3.1-13.5-4.3-2.5-1.2-4.4-2.9-5.7-5-1.3-2.1-1.9-4.5-1.9-7s.5-4.5,1.6-6.5c1.1-2,2.5-3.6,4.4-4.9,1.4-1,3.3-1.9,5.6-2.6,2.4-.7,4.9-1.1,7.7-1.1,4.1,0,7.7.6,10.8,1.8,3.1,1.2,5.4,2.8,6.9,4.8,1.5,2,2.5,4.7,3.1,8.1l-8.7,1.2c-.4-2.7-1.5-4.8-3.4-6.3-1.9-1.5-4.6-2.3-8-2.3s-7,.7-8.7,2c-1.7,1.3-2.6,2.9-2.6,4.7s.4,2.2,1.1,3.1c.7,1,1.9,1.7,3.4,2.4.9.3,3.5,1.1,7.8,2.3,6.3,1.7,10.6,3,13.1,4.1,2.5,1.1,4.4,2.6,5.8,4.7,1.4,2,2.1,4.6,2.1,7.6s-.9,5.7-2.6,8.3c-1.7,2.6-4.2,4.6-7.5,6.1-3.2,1.4-6.9,2.1-11,2.1-6.8,0-12-1.4-15.5-4.2-3.6-2.8-5.8-7-6.8-12.6Z"/>
    <path class="st7" d="M91.4,222.5c-2.9-.7-5.6-1.8-8.1-3.2l.2-2.8c.2-3.9-2.8-6.9-6.7-6.7l-3.2.2c-1.5-2.3-2.6-5-3.4-7.7l2.5-2.2c2.9-2.6,2.9-6.9,0-9.4l-2.6-2.4c.7-2.7,1.7-5.3,3-7.6l3.6.2c3.9.2,6.9-2.8,6.7-6.7l-.2-3.6c2.3-1.4,4.9-2.4,7.6-3l2.4,2.6c2.6,2.9,6.9,2.9,9.4,0l2.2-2.5c2.7.8,5.4,1.8,7.7,3.4l-.2,3.2c-.2,3.9,2.8,6.9,6.7,6.7l2.8-.2c1.5,2.5,2.5,5.3,3.2,8.1l-1.9,1.8c-2.9,2.6-2.9,6.9,0,9.4l1.8,1.7c-.7,2.9-1.9,5.7-3.5,8.3h-2.4c-3.9-.3-6.9,2.7-6.7,6.6v2.4c-2.4,1.6-5.2,2.7-8.1,3.5l-1.7-1.8c-2.6-2.9-6.9-2.9-9.4,0l-1.8,1.9h0ZM97.5,206.7c6.5,0,11.8-5.3,11.8-11.8-.6-15.7-23-15.7-23.7,0,0,6.5,5.3,11.8,11.8,11.8h0Z"/>
    <path class="st7" d="M161.1,222.5c-3-.2-5.9-.7-8.5-1.8l-.3-2.8c-.5-3.9-4-6.3-7.8-5.4l-3.1.7c-1.8-2-3.5-4.4-4.7-7l2.1-2.6c2.4-3.1,1.7-7.3-1.6-9.3l-3-1.9c.2-2.8.7-5.5,1.7-8l3.6-.4c3.9-.5,6.3-4,5.4-7.8l-.8-3.5c2.1-1.7,4.4-3.2,7-4.3l2.9,2.2c3.1,2.4,7.3,1.7,9.3-1.6l1.8-2.9c2.8.3,5.6.9,8.2,2l.4,3.2c.5,3.9,4,6.3,7.8,5.4l2.7-.7c1.9,2.2,3.4,4.7,4.6,7.4l-1.6,2.1c-2.4,3.1-1.7,7.3,1.6,9.3l2.1,1.3c-.2,3-.9,6-2,8.8l-2.4.4c-3.9.4-6.3,3.9-5.5,7.7l.4,2.4c-2.1,2-4.6,3.6-7.3,4.9l-2-1.5c-3.1-2.4-7.3-1.7-9.3,1.6l-1.4,2.2h0ZM164.4,205.8c6.4-1.1,10.7-7.2,9.6-13.6-3.3-15.3-25.3-11.4-23.3,4.1,1.1,6.4,7.2,10.7,13.6,9.6h0Z"/>
  </g>
</svg>