<?xml version="1.0" encoding="UTF-8"?>
<svg id="Layer_1" xmlns="http://www.w3.org/2000/svg" version="1.1" viewBox="0 0 283.5 283.5">
  <!-- Generator: Adobe Illustrator 29.3.1, SVG Export Plug-In . SVG Version: 2.1.0 Build 151)  -->
  <defs>
    <style>
      .st0 {
        fill: #161f2b;
      }

      .st1 {
        fill: #62c8d2;
      }

      .st2 {
        fill: #eef1b5;
      }
    </style>
  </defs>
  <rect class="st0" x="-1.4" y="4" width="283.5" height="283.5" rx="56.7" ry="56.7"/>
  <path class="st2" d="M321.8,83.9"/>
  <path class="st2" d="M91.3,114.7c-2.9,1.2-1.8,3.9-4.7,3.9s-11.2-3.9-13.7-7.2c-2.5-3.1-4.1-8.1-4.4-14.7h-.4c-.8,2.7-1.7,5.4-2.9,7.7-1,2.3-2.3,4.4-4.1,6.2-1.7,1.9-3.5,3.3-5.4,4.2s-4.4,1.4-7.5,1.4-6.4-1.2-9.3-3.7c-2.9-2.5-5.4-5.8-7.7-10.2-2.1-4.2-3.9-9.5-5.2-15.8s-1.9-12.9-1.9-20.3.8-13.7,1.9-19.7,3.3-11,5.6-15.6c2.3-4.4,5.2-7.9,8.3-10.2s6.6-3.7,10.2-3.7,9.1,1.4,11.8,4.2c2.9,2.9,4.8,7.3,6.4,13.3h.4l1.4-15.1h18.9c-.2,4.4-1,11.2-1.9,20.1-1,9.1-2.1,18.7-3.3,29,0,5.8.6,12.4,1.5,19.7M97.6,110.6l-30.5-46.7c0-4.4-.4-8.9-1-13.3s-1.2-8.5-2.1-12.2-2.1-6.6-3.5-8.9-3.1-3.5-5.2-3.5c-3.5,0-6,3.5-8.1,10.2-2.1,6.8-2.9,17.2-2.9,31.5s0,11,.6,15.2c.4,4.2,1,8.3,1.9,11.8,1,3.3,1.9,6,3.5,7.7s3.3,2.7,5.4,2.7c3.5,0,6.2-3.9,8.1-11.6s3.1-17.8,3.3-29.7h0l30.5,46.8Z"/>
  <path class="st1" d="M97.8,141.6c3.8-3.9,3.6-10-.3-13.7-3.8-3.7-9.7-3.7-13.5,0l-10,10c-9.3,9.3-9.3,24.4,0,33.7,9.3,9.3,24.4,9.3,33.7,0l29.8-29.8,13,12.9-38.4,37.4c-3.9,3.8-4,9.9-.3,13.7,3.8,3.9,9.9,4,13.7.3l38.7-37.7,12.9,12.9-29.8,29.8c-9.4,9.2-9.6,24.3-.4,33.7s24.3,9.6,33.7.4c0,0,.3-.3.4-.4l10-10c3.8-3.9,3.6-10-.3-13.7-3.8-3.7-9.7-3.7-13.5,0l-10,10c-1.8,1.7-4.6,1.6-6.3-.2-1.6-1.7-1.6-4.3,0-6.1l36.6-36.6,18.8-18.8,55.1-5c5.4-.5,9.2-5.2,8.8-10.5,0-.8-.2-1.5-.5-2.2-28.2-84.1-26.5-80.9-28.7-83.3-3-3.3-3.6-2.1-84-29.4-5.1-1.7-10.5,1-12.2,6.1-.2.7-.4,1.4-.5,2.2l-5,55.1-18.8,18.8-36.6,36.6c-1.8,1.7-4.6,1.6-6.3-.2-1.6-1.7-1.6-4.3,0-6.1l10-10v.2ZM171.1,108.3c17-16.8,40.2-25.7,64.1-24.6,1.2,23.8-7.7,47.1-24.5,64.1h0l-19.8,19.8-39.6-39.6,19.8-19.8h0ZM235.7,148.1c5.7-8.4,10.3-17.5,13.7-27l8.4,25.1-22,2h0ZM172.8,61.2l25.1,8.4c-9.6,3.5-18.6,8-27.1,13.7l2-22h0Z"/>
  <path class="st1" d="M-223.1,166.1"/>
</svg>